<?xml version="1.0" encoding="UTF-8" standalone="no"?>
<!-- Created with Inkscape (http://www.inkscape.org/) -->

<svg
   xmlns:dc="http://purl.org/dc/elements/1.1/"
   xmlns:cc="http://creativecommons.org/ns#"
   xmlns:rdf="http://www.w3.org/1999/02/22-rdf-syntax-ns#"
   xmlns:svg="http://www.w3.org/2000/svg"
   xmlns="http://www.w3.org/2000/svg"
   xmlns:sodipodi="http://sodipodi.sourceforge.net/DTD/sodipodi-0.dtd"
   xmlns:inkscape="http://www.inkscape.org/namespaces/inkscape"
   width="1280"
   height="720"
   id="svg2"
   version="1.1"
   inkscape:version="0.48.4 r9939"
   sodipodi:docname="lights.svg">
  <defs
     id="defs4" />
  <sodipodi:namedview
     id="base"
     pagecolor="#ffffff"
     bordercolor="#666666"
     borderopacity="1.0"
     inkscape:pageopacity="0.0"
     inkscape:pageshadow="2"
     inkscape:zoom="0.98994949"
     inkscape:cx="622.50284"
     inkscape:cy="341.81077"
     inkscape:document-units="px"
     inkscape:current-layer="layer2"
     showgrid="false"
     inkscape:window-width="1920"
     inkscape:window-height="1024"
     inkscape:window-x="0"
     inkscape:window-y="28"
     inkscape:window-maximized="1" />
  <metadata
     id="metadata7">
    <rdf:RDF>
      <cc:Work
         rdf:about="">
        <dc:format>image/svg+xml</dc:format>
        <dc:type
           rdf:resource="http://purl.org/dc/dcmitype/StillImage" />
        <dc:title />
      </cc:Work>
    </rdf:RDF>
  </metadata>
  <g
     inkscape:label="Walls"
     inkscape:groupmode="layer"
     id="layer1"
     transform="translate(0,-332.36218)">
    <path
       style="fill:none;stroke:#000000;stroke-width:1px;stroke-linecap:butt;stroke-linejoin:miter;stroke-opacity:1"
       d="m 182.83761,181.58869 -61.6193,33.33504 32.32488,111.11678 112.12693,38.38579 18.18275,-130.30967 z"
       id="path2987"
       inkscape:connector-curvature="0"
       transform="translate(0,332.36218)" />
    <path
       style="fill:none;stroke:#000000;stroke-width:1px;stroke-linecap:butt;stroke-linejoin:miter;stroke-opacity:1"
       d="m 281.83256,94.715574 -31.31473,23.233506 31.31473,21.21321 z"
       id="path2989"
       inkscape:connector-curvature="0"
       transform="translate(0,332.36218)" />
    <path
       style="fill:none;stroke:#000000;stroke-width:1px;stroke-linecap:butt;stroke-linejoin:miter;stroke-opacity:1"
       d="m 331.33003,371.51936 95.9645,207.08128 162.63456,-50.50763 z"
       id="path2991"
       inkscape:connector-curvature="0" />
    <path
       style="fill:none;stroke:#000000;stroke-width:1px;stroke-linecap:butt;stroke-linejoin:miter;stroke-opacity:1"
       d="M 299.00515,468.47202 344.46202,324.0202 956.61446,221.9948 958.63477,490.69537 447.49758,610.90353 z"
       id="path2993"
       inkscape:connector-curvature="0"
       transform="translate(0,332.36218)" />
    <path
       style="fill:none;stroke:#000000;stroke-width:1px;stroke-linecap:butt;stroke-linejoin:miter;stroke-opacity:1"
       d="m 817.21341,41.17749 4.04061,130.30968 191.92898,42.4264 63.6396,-103.03555 z"
       id="path2995"
       inkscape:connector-curvature="0"
       transform="translate(0,332.36218)" />
    <path
       style="fill:none;stroke:#000000;stroke-width:1px;stroke-linecap:butt;stroke-linejoin:miter;stroke-opacity:1"
       d="m 1040.9622,825.07785 -31.3147,23.23351 31.3147,21.21321 z"
       id="path2989-7"
       inkscape:connector-curvature="0" />
    <path
       style="fill:none;stroke:#000000;stroke-width:1px;stroke-linecap:butt;stroke-linejoin:miter;stroke-opacity:1"
       d="m 1126.8252,833.15907 -31.3148,23.23351 31.3148,21.21321 z"
       id="path2989-1"
       inkscape:connector-curvature="0" />
    <path
       style="fill:none;stroke:#000000;stroke-width:1px;stroke-linecap:butt;stroke-linejoin:miter;stroke-opacity:1"
       d="m 1189.4546,908.92051 -31.3147,23.23351 31.3147,21.21321 z"
       id="path2989-4"
       inkscape:connector-curvature="0" />
    <path
       style="fill:none;stroke:#000000;stroke-width:1px;stroke-linecap:butt;stroke-linejoin:miter;stroke-opacity:1"
       d="m 1136.9267,970.53982 -31.3147,23.23351 31.3147,21.21317 z"
       id="path2989-46"
       inkscape:connector-curvature="0" />
    <path
       style="fill:none;stroke:#000000;stroke-width:1px;stroke-linecap:butt;stroke-linejoin:miter;stroke-opacity:1"
       d="m 1052.0739,980.64135 -31.3148,23.23355 31.3148,21.2132 z"
       id="path2989-6"
       inkscape:connector-curvature="0" />
    <path
       style="fill:none;stroke:#000000;stroke-width:1px;stroke-linecap:butt;stroke-linejoin:miter;stroke-opacity:1"
       d="m 982.37335,948.31646 -31.31473,23.23351 31.31473,21.21321 z"
       id="path2989-2"
       inkscape:connector-curvature="0" />
    <path
       style="fill:none;stroke:#000000;stroke-width:1px;stroke-linecap:butt;stroke-linejoin:miter;stroke-opacity:1"
       d="m 999.54594,856.39258 -31.31473,23.23351 31.31473,21.21321 z"
       id="path2989-72"
       inkscape:connector-curvature="0" />
  </g>
  <g
     inkscape:groupmode="layer"
     id="layer2"
     inkscape:label="Lights">
    <path
       sodipodi:type="arc"
       style="fill:#3ebf4e;fill-opacity:1;stroke:none"
       id="path4052"
       sodipodi:cx="644.47736"
       sodipodi:cy="130.07091"
       sodipodi:rx="26.263966"
       sodipodi:ry="26.263966"
       d="m 670.74132,130.07091 a 26.263966,26.263966 0 1 1 -52.52793,0 26.263966,26.263966 0 1 1 52.52793,0 z" />
    <path
       transform="translate(514.16762,316.17775)"
       sodipodi:type="arc"
       style="fill:#3ebf4e;fill-opacity:1;stroke:none"
       id="path4052-5"
       sodipodi:cx="644.47736"
       sodipodi:cy="130.07091"
       sodipodi:rx="26.263966"
       sodipodi:ry="26.263966"
       d="m 670.74132,130.07091 a 26.263966,26.263966 0 1 1 -52.52793,0 26.263966,26.263966 0 1 1 52.52793,0 z" />
    <path
       transform="translate(-208.09146,532.3504)"
       sodipodi:type="arc"
       style="fill:#3ebf4e;fill-opacity:1;stroke:none"
       id="path4052-1"
       sodipodi:cx="644.47736"
       sodipodi:cy="130.07091"
       sodipodi:rx="26.263966"
       sodipodi:ry="26.263966"
       d="m 670.74132,130.07091 a 26.263966,26.263966 0 1 1 -52.52793,0 26.263966,26.263966 0 1 1 52.52793,0 z" />
    <path
       transform="translate(-554.57378,85.862971)"
       sodipodi:type="arc"
       style="fill:#3ebf4e;fill-opacity:1;stroke:none"
       id="path4052-54"
       sodipodi:cx="644.47736"
       sodipodi:cy="130.07091"
       sodipodi:rx="26.263966"
       sodipodi:ry="26.263966"
       d="m 670.74132,130.07091 a 26.263966,26.263966 0 1 1 -52.52793,0 26.263966,26.263966 0 1 1 52.52793,0 z" />
    <path
       transform="translate(406.08129,134.35029)"
       sodipodi:type="arc"
       style="fill:#3ebf4e;fill-opacity:1;stroke:none"
       id="path4052-2"
       sodipodi:cx="644.47736"
       sodipodi:cy="130.07091"
       sodipodi:rx="26.263966"
       sodipodi:ry="26.263966"
       d="m 670.74132,130.07091 a 26.263966,26.263966 0 1 1 -52.52793,0 26.263966,26.263966 0 1 1 52.52793,0 z" />
    <path
       transform="translate(151.52285,486.89353)"
       sodipodi:type="arc"
       style="fill:#3ebf4e;fill-opacity:1;stroke:none"
       id="path4052-2-4"
       sodipodi:cx="644.47736"
       sodipodi:cy="130.07091"
       sodipodi:rx="26.263966"
       sodipodi:ry="26.263966"
       d="m 670.74132,130.07091 a 26.263966,26.263966 0 1 1 -52.52793,0 26.263966,26.263966 0 1 1 52.52793,0 z" />
    <path
       transform="translate(-334.36052,371.73614)"
       sodipodi:type="arc"
       style="fill:#3ebf4e;fill-opacity:1;stroke:none"
       id="path4052-2-9"
       sodipodi:cx="644.47736"
       sodipodi:cy="130.07091"
       sodipodi:rx="26.263966"
       sodipodi:ry="26.263966"
       d="m 670.74132,130.07091 a 26.263966,26.263966 0 1 1 -52.52793,0 26.263966,26.263966 0 1 1 52.52793,0 z" />
    <path
       transform="translate(-399.01029,246.47723)"
       sodipodi:type="arc"
       style="fill:#3ebf4e;fill-opacity:1;stroke:none"
       id="path4052-2-0"
       sodipodi:cx="644.47736"
       sodipodi:cy="130.07091"
       sodipodi:rx="26.263966"
       sodipodi:ry="26.263966"
       d="m 670.74132,130.07091 a 26.263966,26.263966 0 1 1 -52.52793,0 26.263966,26.263966 0 1 1 52.52793,0 z" />
    <path
       transform="translate(308.09649,398.00011)"
       sodipodi:type="arc"
       style="fill:#3ebf4e;fill-opacity:1;stroke:none"
       id="path4052-2-01"
       sodipodi:cx="644.47736"
       sodipodi:cy="130.07091"
       sodipodi:rx="26.263966"
       sodipodi:ry="26.263966"
       d="m 670.74132,130.07091 a 26.263966,26.263966 0 1 1 -52.52793,0 26.263966,26.263966 0 1 1 52.52793,0 z" />
  </g>
</svg>
